# AST/ASF file generated using VICON BodyLanguage
# -----------------------------------------------
:version 1.10
:name VICON
:units
  mass 1.0
  length 0.45
  angle deg
:documentation
   .ast/.asf automatically generated from VICON data using
   VICON BodyBuilder and BodyLanguage model FoxedUp or BRILLIANT.MOD
:root
   order TX TY TZ RX RY RZ
   axis XYZ
   position 0 0 0  
   orientation 0 0 0 
:bonedata
  begin
     id 1 
     name lhipjoint
     direction 0.61886 -0.69539 0.365302 
     length 2.20474 
     axis 0 0 0  XYZ
  end
  begin
     id 2 
     name lfemur
     direction 0.34202 -0.939693 0  
     length 6.65149  
     axis 0 0 20  XYZ
    dof rx ry rz
    limits (-160.0 20.0)
           (-70.0 70.0)
           (-60.0 70.0)
  end
  begin
     id 3 
     name ltibia
     direction 0.34202 -0.939693 0   
     length 6.35814   
     axis 0 0 20   XYZ
    dof rx
    limits (-10.0 170.0)
  end
  begin
     id 4 
     name lfoot
     direction 0.101224 -0.278109 0.955201   
     length 2.18766   
     axis -90 7.62852e-016 20   XYZ
    dof rx rz
    limits (-45.0 90.0)
           (-70.0 20.0)
  end
  begin
     id 5 
     name ltoes
     direction 1.53524e-011 -4.21877e-011 1   
     length 1.09206   
     axis -90 7.62852e-016 20   XYZ
    dof rx
    limits (-90.0 20.0)
  end
  begin
     id 6 
     name rhipjoint
     direction -0.600207 -0.708087 0.371972   
     length 2.1652  
     axis 0 0 0  XYZ 
  end
  begin
     id 7 
     name rfemur
     direction -0.34202 -0.939693 0   
     length 6.54691   
     axis 0 0 -20   XYZ
    dof rx ry rz
    limits (-160.0 20.0)
           (-70.0 70.0)
           (-70.0 60.0)
  end
  begin
     id 8 
     name rtibia
     direction -0.34202 -0.939693 0   
     length 6.37474   
     axis 0 0 -20   XYZ
    dof rx
    limits (-10.0 170.0)
 end
 begin
     id 9 
     name rfoot
     direction -0.111266 -0.3057 0.945604   
     length 2.00903  
     axis -90 -7.62852e-016 -20   XYZ
    dof rx rz
    limits (-45.0 90.0)
           (-20.0 70.0)
  end
  begin
     id 10 
     name rtoes
     direction -1.5362e-011 -4.21913e-011 1   
     length 1.00221   
     axis -90 -7.62852e-016 -20   XYZ
    dof rx
    limits (-90.0 20.0)
  end
  begin
     id 11 
     name lowerback
     direction -0.0224561 0.999731 -0.00577314   
     length 2.10409   
     axis 0 0 0   XYZ
    dof rx ry rz
    limits (-20.0 45.0)
           (-30.0 30.0)
           (-30.0 30.0)
  end
  begin
     id 12 
     name upperback
     direction 0.0213126 0.999185 -0.0342817   
     length 2.09783   
     axis 0 0 0   XYZ
    dof rx ry rz
    limits (-20.0 45.0)
           (-30.0 30.0)
           (-30.0 30.0)
  end
  begin
     id 13 
     name thorax
     direction 0.0312356 0.999036 -0.0308451   
     length 2.09788   
     axis 0 0 0   XYZ
    dof rx ry rz
    limits (-20.0 45.0)
           (-30.0 30.0)
           (-30.0 30.0)
  end
  begin
     id 14 
     name lowerneck
     direction -0.0114419 0.996481 0.0830329   
     length 1.38575   
     axis 0 0 0   XYZ
    dof rx ry rz
    limits (-20.0 45.0)
           (-30.0 30.0)
           (-30.0 30.0)
  end
  begin
     id 15 
     name upperneck
     direction -0.0075675 0.996187 -0.0869092   
     length 1.39401   
     axis 0 0 0   XYZ
    dof rx ry rz
    limits (-20.0 45.0)
           (-30.0 30.0)
           (-30.0 30.0)
  end
  begin
     id 16
     name head
     direction -0.00222073 0.999264 -0.0382974  
     length 1.3964  
     axis 0 0 0   XYZ
    dof rx ry rz
    limits (-20.0 45.0)
           (-30.0 30.0)
           (-30.0 30.0)
  end
  begin
     id 17 
     name lclavicle
     direction 0.965962 0.222138 0.132556  
     length 2.81514  
     axis 0 0 0   XYZ
    dof ry rz
    limits (-20.0 10.0)
           (0.0 20.0)
  end
  begin
     id 18 
     name lhumerus
     direction 1 -4.48972e-011 7.03471e-018   
     length 4.47366   
     axis 180 -30 -90   XYZ
    dof rx ry rz
    limits (-60.0 90.0)
           (-90.0 90.0)
           (-90.0 90.0)
  end
  begin
     id 19
     name lradius
     direction 1 -4.48951e-011 -6.22192e-028   
     length 3.19948   
     axis 180 -30 -90   XYZ
    dof rx
    limits (-10.0 170.0)
  end
  begin
     id 20
     name lwrist
     direction 1 -4.48967e-011 -1.24264e-027   
     length 1.59974   
     axis 1.40095e-015 90 90   XYZ
    dof ry
    limits (-180.0 0.0)
 end
  begin
     id 21 
     name lhand
     direction 1 -4.4897e-011 -2.48528e-027   
     length 0.492667   
     axis 1.58582e-015 90 90   XYZ
    dof rx rz
    limits (-90.0 90.0)
           (-45.0 45.0)
  end
  begin
     id 22 
     name lfingers
     direction 1 -4.48996e-011 -4.97056e-027   
     length 0.397201   
     axis 3.17164e-015 90 90   XYZ
    dof rx
    limits (0.0 90.0)
  end
  begin
     id 23
     name lthumb
     direction 0.707107 -6.34981e-011 0.707107   
     length 0.570303   
     axis -90 45 2.85299e-015   XYZ
    dof rx rz
    limits (-45.0 45.0)
           (-45.0 45.0)
  end
  begin
     id 24 
     name rclavicle
     direction -0.961164 0.229034 0.153972   
     length 3.09348  
     axis 0 0 0   XYZ 
    dof ry rz
    limits (-10.0 20.0)
           (-20.0 0.0)
  end
  begin
     id 25 
     name rhumerus
     direction -1 -4.48971e-011 -9.06263e-028  
     length 4.3269   
     axis 180 30 90   XYZ
    dof rx ry rz
    limits (-90.0 60.0)
           (-90.0 90.0)
           (-90.0 90.0)
  end
  begin
     id 26 
     name rradius
     direction -1 -4.48953e-011 1.44659e-027   
     length 3.1896   
     axis 180 30 90   XYZ
    dof rx
    limits (-10.0 170.0)
  end
  begin
     id 27 
     name rwrist
     direction -1 -4.48988e-011 -1.24264e-027   
     length 1.5948   
     axis 1.40095e-015 -90 -90   XYZ
    dof ry
    limits (-180.0 0.0)
  end
  begin
     id 28
     name rhand
     direction -1 -4.49033e-011 -2.48528e-027   
     length 0.464496   
     axis 1.58582e-015 -90 -90   XYZ
    dof rx rz
    limits (-90.0 90.0)
           (-45.0 45.0)
  end
  begin
     id 29
     name rfingers
     direction -1 -4.48905e-011 -4.97056e-027   
     length 0.374489   
     axis 3.17164e-015 -90 -90   XYZ
    dof rx
    limits (0.0 90.0)
  end
  begin
     id 30
     name rthumb
     direction -0.707107 -6.34909e-011 0.707107   
     length 0.537693   
     axis -90 -45 -2.85299e-015   XYZ
    dof rx rz
    limits (-45.0 45.0)
           (-45.0 45.0)
  end
:hierarchy
  begin
    root lhipjoint rhipjoint lowerback
    lhipjoint lfemur
    lfemur ltibia
    ltibia lfoot
    lfoot ltoes
    rhipjoint rfemur
    rfemur rtibia
    rtibia rfoot
    rfoot rtoes
    lowerback upperback
    upperback thorax
    thorax lowerneck lclavicle rclavicle
    lowerneck upperneck
    upperneck head
    lclavicle lhumerus
    lhumerus lradius
    lradius lwrist
    lwrist lhand lthumb
    lhand lfingers
    rclavicle rhumerus
    rhumerus rradius
    rradius rwrist
    rwrist rhand rthumb
    rhand rfingers
  end

#!OML:ASF G:\acrobat\cartwheel_test 2\Patient 1\Session 2\acrobat4.ASF
:FULLY-SPECIFIED
:DEGREES
540
root 10.7247 15.3536 15.8938 186.854 416.104 180.223
lowerback 4.01418 0.31267 -1.51598
upperback 1.65232 0.393685 -0.102672
thorax -0.563935 0.206611 0.727192
lowerneck -4.76237 9.77875 6.61643
upperneck 0.915947 13.232 -12.386
head 2.33192 6.46944 -4.18891
rclavicle -1.87106e-014 3.97569e-016
rhumerus -36.9847 -13.0881 -41.4859
rradius 42.7134
rwrist -14.5312
rhand -19.4438 322.676
rfingers 7.12502
rthumb 6.87675 -67.1925
lclavicle -1.87106e-014 3.97569e-016
lhumerus -25.0419 -15.8186 77.9593
lradius 103.7
lwrist -169.907
lhand -28.6903 3.16329
lfingers 7.12502
lthumb -2.05264 33.1332
rfemur -17.4123 15.5169 18.9126
rtibia 37.2509
rfoot -19.684 -19.7058
rtoes -14.6401
lfemur -210.567 170.383 -190.095
ltibia 42.0476
lfoot -14.1479 13.8767
ltoes -2.18382
541
root 10.6393 15.3675 15.9861 185.559 416.957 178.396
lowerback 3.80973 0.0640803 -1.95482
upperback 1.724 0.0528225 -0.241875
thorax -0.36788 0.033731 0.845829
lowerneck -4.11651 10.0414 6.69025
upperneck 0.186255 13.5465 -12.5193
head 2.05552 6.6657 -4.26998
rclavicle -5.32122e-014 -1.09332e-015
rhumerus -38.8369 -14.8686 -39.0101
rradius 41.4276
rwrist -15.6542
rhand -19.8255 322.181
rfingers 7.12502
rthumb 6.50831 -67.6994
lclavicle -5.32122e-014 -1.09332e-015
lhumerus -24.4097 -18.313 79.2754
lradius 103.696
lwrist -170.065
lhand -29.4179 2.96421
lfingers 7.12502
lthumb -2.75526 32.9262
rfemur -18.7354 15.4635 17.552
rtibia 38.026
rfoot -19.7764 -18.7955
rtoes -14.326
lfemur -209.319 169.688 -191.378
ltibia 43.2596
lfoot -16.3518 11.0626
ltoes -2.57787
542
root 10.555 15.3726 16.0729 184.482 417.73 176.806
lowerback 3.48968 -0.159968 -2.24069
upperback 1.82721 -0.243607 -0.320223
thorax -0.0733493 -0.118498 0.936306
lowerneck -3.65755 10.274 6.62245
upperneck -0.322275 13.8288 -12.4563
head 1.84796 6.83512 -4.26197
rclavicle -6.48108e-015 -1.18168e-014
rhumerus -40.6742 -16.7732 -36.3355
rradius 39.8898
rwrist -15.9523
rhand -19.3188 321.256
rfingers 7.12502
rthumb 6.99744 -68.6081
lclavicle -6.48108e-015 -1.18168e-014
lhumerus -23.3526 -20.6011 80.3127
lradius 103.445
lwrist -170.292
lhand -31.0419 2.38535
lfingers 7.12502
lthumb -4.32363 32.3212
rfemur -20.096 15.5886 16.4051
rtibia 38.7687
rfoot -19.6664 -18.2391
rtoes -14.7296
lfemur -208.18 169.192 -192.589
ltibia 44.5871
lfoot -17.9015 8.64101
ltoes -3.86055
543
root 10.4691 15.3671 16.1558 183.748 418.36 175.764
lowerback 3.28869 -0.395824 -2.24812
upperback 1.95137 -0.548675 -0.266754
thorax 0.176977 -0.274139 1.00345
lowerneck -3.25681 10.4976 6.61841
upperneck -0.620719 14.1198 -12.5041
head 1.72564 7.00057 -4.28736
rclavicle 1.98288e-014 4.87022e-015
rhumerus -42.5468 -18.1915 -33.7644
rradius 38.3589
rwrist -15.8746
rhand -19.1407 320.766
rfingers 7.12502
rthumb 7.16935 -69.0922
lclavicle 1.98288e-014 4.87022e-015
lhumerus -22.7629 -22.5542 81.5506
lradius 103.472
lwrist -170.725
lhand -31.6045 1.54174
lfingers 7.12502
lthumb -4.86682 31.4658
rfemur -21.294 15.9549 15.6687
rtibia 39.5087
rfoot -19.4668 -18.0658
rtoes -15.1398
lfemur -207.058 168.992 -193.517
ltibia 45.937
lfoot -19.0593 6.56981
ltoes -5.39789
544
root 10.3834 15.3597 16.2356 182.842 418.938 174.612
lowerback 3.17099 -0.600806 -2.31192
upperback 2.06693 -0.816078 -0.226874
thorax 0.372075 -0.410642 1.08569
lowerneck -2.92041 10.7244 6.72099
upperneck -0.710452 14.4297 -12.6074
head 1.68933 7.16679 -4.33391
rclavicle 8.15514e-014 -1.88845e-014
rhumerus -44.6215 -19.1379 -31.445
rradius 36.9819
rwrist -15.3002
rhand -19.4778 321.591
rfingers 7.12502
rthumb 6.84396 -68.2788
lclavicle 8.15514e-014 -1.88845e-014
lhumerus -23.169 -24.1895 83.3308
lradius 104.023
lwrist -171.732
lhand -31.1251 0.843357
lfingers 7.12502
lthumb -4.40392 30.7776
rfemur -22.3595 16.4598 14.885
rtibia 40.1882
rfoot -19.3434 -17.9892
rtoes -15.0667
lfemur -205.902 169.049 -194.584
ltibia 47.229
lfoot -20.2435 4.33628
ltoes -5.88273
545
root 10.2993 15.3552 16.3146 182.193 419.475 173.807
lowerback 3.12372 -0.763803 -2.19964
upperback 2.17982 -1.02531 -0.167995
thorax 0.520821 -0.516008 1.08692
lowerneck -2.69702 10.9273 6.81142
upperneck -0.655047 14.7126 -12.6424
head 1.70574 7.312 -4.3499
rclavicle -3.32964e-015 5.1684e-015
rhumerus -46.9124 -19.9484 -29.3246
rradius 35.7893
rwrist -14.1101
rhand -19.5302 322.153
rfingers 7.12502
rthumb 6.79339 -67.7184
lclavicle -3.32964e-015 5.1684e-015
lhumerus -23.3803 -25.7066 84.9454
lradius 104.338
lwrist -172.454
lhand -30.0148 0.509277
lfingers 7.12502
lthumb -3.33174 30.463
rfemur -23.3715 17.1048 14.3153
rtibia 40.833
rfoot -19.2763 -18.0053
rtoes -14.8339
lfemur -204.772 169.387 -195.498
ltibia 48.322
lfoot -21.3314 1.30091
ltoes -5.28265
